<svg version="1.1" id="Layer_1" xmlns="http://www.w3.org/2000/svg" xmlns:xlink="http://www.w3.org/1999/xlink" x="0px" y="0px"
	 width="100%" viewBox="0 0 500 500" enable-background="new 0 0 500 500" xml:space="preserve">
<path fill="#000000" opacity="1.000000" stroke="none" 
	d="
M501.000000,182.000000 
	C501.000000,288.666656 501.000000,394.833282 501.000000,500.999939 
	C334.333405,500.999969 167.666794,500.999969 1.000146,501.000000 
	C1.000098,334.333435 1.000098,167.666870 1.000049,1.000236 
	C167.666519,1.000157 334.333038,1.000157 500.999786,1.000079 
	C501.000000,61.166668 501.000000,121.333336 501.000000,182.000000 
M36.095184,130.597855 
	C32.746994,137.338470 29.312160,144.037643 26.065956,150.827026 
	C13.525041,177.056107 7.146645,204.970642 5.215747,233.753708 
	C3.873191,253.766602 4.488830,273.936127 8.157448,293.771332 
	C13.231735,321.206604 22.657871,347.068665 36.099361,371.622955 
	C48.447723,394.180328 65.535934,413.001404 82.053207,432.264618 
	C87.431725,438.537323 94.394051,443.642548 101.220146,448.445923 
	C118.193184,460.389465 135.915985,471.053650 155.160324,479.135742 
	C176.748352,488.202087 199.123154,495.263489 222.313461,496.520721 
	C245.091995,497.755585 268.136658,498.786652 290.987244,495.104187 
	C313.619629,491.456879 335.214081,484.653198 355.932312,474.997803 
	C372.909454,467.085846 388.466766,456.918121 403.321564,445.486816 
	C420.643982,432.156616 435.714447,416.657257 448.772125,399.301575 
	C460.588898,383.595245 470.499420,366.687469 478.338257,348.517212 
	C487.892151,326.371490 494.838959,303.401093 496.597565,279.529999 
	C498.106293,259.050293 497.115601,238.280396 495.804962,217.729736 
	C494.562836,198.254089 489.137360,179.398605 481.562317,161.451172 
	C475.784119,147.760941 468.797028,134.537903 461.700867,121.457985 
	C452.980011,105.383423 441.355591,91.367271 428.663910,78.274445 
	C425.845154,75.366592 422.306091,73.159218 419.112305,70.612213 
	C409.573944,63.005463 400.358307,54.946690 390.436676,47.878548 
	C374.098755,36.239445 356.283813,27.226332 337.481720,20.156164 
	C314.772186,11.616671 291.271179,6.526884 267.125732,5.189356 
	C254.233353,4.475188 241.230209,5.514081 228.287170,6.020250 
	C210.025558,6.734415 192.388351,10.975953 175.091263,16.508345 
	C149.614960,24.656820 126.001358,36.700214 104.488724,52.574390 
	C95.153122,59.463127 86.433922,67.220161 77.731308,74.918076 
	C74.085381,78.143089 71.168449,82.203812 67.992737,85.946236 
	C62.794762,92.071808 57.219810,97.939758 52.602882,104.480385 
	C46.816471,112.677773 41.836758,121.444595 36.095184,130.597855 
z"/>
<path fill="#9A041E" opacity="1.000000" stroke="none" 
	d="
M36.302021,130.281738 
	C41.836758,121.444595 46.816471,112.677773 52.602882,104.480385 
	C57.219810,97.939758 62.794762,92.071808 67.992737,85.946236 
	C71.168449,82.203812 74.085381,78.143089 77.731308,74.918076 
	C86.433922,67.220161 95.153122,59.463127 104.488724,52.574390 
	C126.001358,36.700214 149.614960,24.656820 175.091263,16.508345 
	C192.388351,10.975953 210.025558,6.734415 228.287170,6.020250 
	C241.230209,5.514081 254.233353,4.475188 267.125732,5.189356 
	C291.271179,6.526884 314.772186,11.616671 337.481720,20.156164 
	C356.283813,27.226332 374.098755,36.239445 390.436676,47.878548 
	C400.358307,54.946690 409.573944,63.005463 419.112305,70.612213 
	C422.306091,73.159218 425.845154,75.366592 428.663910,78.274445 
	C441.355591,91.367271 452.980011,105.383423 461.700867,121.457985 
	C468.797028,134.537903 475.784119,147.760941 481.562317,161.451172 
	C489.137360,179.398605 494.562836,198.254089 495.804962,217.729736 
	C497.115601,238.280396 498.106293,259.050293 496.597565,279.529999 
	C494.838959,303.401093 487.892151,326.371490 478.338257,348.517212 
	C470.499420,366.687469 460.588898,383.595245 448.772125,399.301575 
	C435.714447,416.657257 420.643982,432.156616 403.321564,445.486816 
	C388.466766,456.918121 372.909454,467.085846 355.932312,474.997803 
	C335.214081,484.653198 313.619629,491.456879 290.987244,495.104187 
	C268.136658,498.786652 245.091995,497.755585 222.313461,496.520721 
	C199.123154,495.263489 176.748352,488.202087 155.160324,479.135742 
	C135.915985,471.053650 118.193184,460.389465 101.220146,448.445923 
	C94.394051,443.642548 87.431725,438.537323 82.053207,432.264618 
	C65.535934,413.001404 48.447723,394.180328 36.099361,371.622955 
	C22.657871,347.068665 13.231735,321.206604 8.157448,293.771332 
	C4.488830,273.936127 3.873191,253.766602 5.215747,233.753708 
	C7.146645,204.970642 13.525041,177.056107 26.065956,150.827026 
	C29.312160,144.037643 32.746994,137.338470 36.302021,130.281738 
M396.158997,429.809082 
	C398.725250,427.591309 401.498657,425.570251 403.823059,423.122772 
	C415.910095,410.395721 428.784943,398.349884 438.844147,383.830017 
	C449.413879,368.573212 458.594818,352.585358 465.447662,335.231140 
	C474.001862,313.568512 479.115082,291.108154 480.763092,268.023071 
	C481.692963,254.997879 480.615570,241.797058 479.962097,228.699310 
	C479.144318,212.308243 475.332214,196.433426 470.396027,180.840179 
	C464.284454,161.534058 455.811981,143.253143 444.556946,126.451019 
	C438.056580,116.746964 430.786102,107.449371 422.975586,98.766365 
	C416.523987,91.594070 408.908905,85.431656 401.553894,79.119408 
	C394.651428,73.195534 387.566010,67.459457 380.291351,62.000118 
	C366.672760,51.779881 351.515350,44.340725 335.801270,37.910324 
	C313.945679,28.966707 291.125183,23.900690 267.716278,22.235416 
	C254.691406,21.308844 241.488953,22.370358 228.394302,23.061701 
	C212.186234,23.917421 196.431503,27.528208 181.030075,32.520943 
	C155.377914,40.836697 131.878494,53.147278 110.442284,69.683647 
	C93.513603,82.742805 78.755241,97.794792 66.165009,114.900986 
	C55.687588,129.136520 46.977352,144.483719 39.985172,160.820831 
	C29.958523,184.247940 23.861326,208.699020 22.266350,233.975418 
	C21.121902,252.112045 21.543850,270.359314 24.806513,288.506439 
	C29.602190,315.180359 37.871002,340.342194 51.632771,363.853882 
	C62.120693,381.772217 74.273781,398.202209 89.155617,412.612396 
	C97.678261,420.864899 105.820862,429.674438 115.196777,436.844116 
	C130.706528,448.704193 147.894135,457.851624 166.119781,465.136963 
	C188.385696,474.037354 211.462234,479.401093 235.252884,480.833191 
	C262.648926,482.482330 289.789307,480.015961 316.248718,472.002625 
	C334.780701,466.390106 352.503784,458.866974 368.992645,448.786194 
	C378.198486,443.157928 386.647736,436.292206 396.158997,429.809082 
z"/>
<path fill="#000000" opacity="1.000000" stroke="none" 
	d="
M395.798462,429.896606 
	C386.647736,436.292206 378.198486,443.157928 368.992645,448.786194 
	C352.503784,458.866974 334.780701,466.390106 316.248718,472.002625 
	C289.789307,480.015961 262.648926,482.482330 235.252884,480.833191 
	C211.462234,479.401093 188.385696,474.037354 166.119781,465.136963 
	C147.894135,457.851624 130.706528,448.704193 115.196777,436.844116 
	C105.820862,429.674438 97.678261,420.864899 89.155617,412.612396 
	C74.273781,398.202209 62.120693,381.772217 51.632771,363.853882 
	C37.871002,340.342194 29.602190,315.180359 24.806513,288.506439 
	C21.543850,270.359314 21.121902,252.112045 22.266350,233.975418 
	C23.861326,208.699020 29.958523,184.247940 39.985172,160.820831 
	C46.977352,144.483719 55.687588,129.136520 66.165009,114.900986 
	C78.755241,97.794792 93.513603,82.742805 110.442284,69.683647 
	C131.878494,53.147278 155.377914,40.836697 181.030075,32.520943 
	C196.431503,27.528208 212.186234,23.917421 228.394302,23.061701 
	C241.488953,22.370358 254.691406,21.308844 267.716278,22.235416 
	C291.125183,23.900690 313.945679,28.966707 335.801270,37.910324 
	C351.515350,44.340725 366.672760,51.779881 380.291351,62.000118 
	C387.566010,67.459457 394.651428,73.195534 401.553894,79.119408 
	C408.908905,85.431656 416.523987,91.594070 422.975586,98.766365 
	C430.786102,107.449371 438.056580,116.746964 444.556946,126.451019 
	C455.811981,143.253143 464.284454,161.534058 470.396027,180.840179 
	C475.332214,196.433426 479.144318,212.308243 479.962097,228.699310 
	C480.615570,241.797058 481.692963,254.997879 480.763092,268.023071 
	C479.115082,291.108154 474.001862,313.568512 465.447662,335.231140 
	C458.594818,352.585358 449.413879,368.573212 438.844147,383.830017 
	C428.784943,398.349884 415.910095,410.395721 403.823059,423.122772 
	C401.498657,425.570251 398.725250,427.591309 395.798462,429.896606 
M336.119476,129.313278 
	C333.705963,124.993134 331.414368,120.599312 328.857086,116.366020 
	C319.439178,100.775703 305.994263,88.998222 291.583344,78.392014 
	C275.555664,66.595932 258.260559,56.910961 238.765854,52.040295 
	C235.070190,51.116947 230.501846,51.459461 226.905807,52.775009 
	C215.347534,57.003384 207.663452,65.709908 201.878220,76.333740 
	C193.666031,91.414337 196.355423,106.695892 209.343704,117.832390 
	C217.160706,124.534882 225.028641,124.935745 234.020798,119.799866 
	C236.138779,118.590179 239.413376,118.478683 241.899017,119.026840 
	C247.591476,120.282196 253.112534,120.929398 258.815796,119.211464 
	C260.258820,118.776787 262.206543,118.722023 263.514099,119.346924 
	C271.079315,122.962425 276.569244,133.065018 275.997772,141.500580 
	C275.561310,147.943130 275.374908,154.402267 274.981537,160.848190 
	C274.539459,168.091599 273.989838,175.328461 273.526733,181.996338 
	C264.150452,181.996338 254.976852,181.649933 245.841202,182.090485 
	C236.046539,182.562790 228.294693,188.052200 221.120544,193.877853 
	C210.909470,189.544266 200.640045,187.867599 189.887512,187.915527 
	C172.444458,187.993271 158.172836,194.594452 148.170853,208.677628 
	C143.097931,215.820480 138.369476,224.003906 136.488617,232.390472 
	C134.665741,240.518585 135.881683,249.638535 137.227600,258.089630 
	C138.971619,269.040344 144.123489,278.953491 152.295929,286.499115 
	C166.989594,300.065735 184.686722,302.429352 203.729721,298.665100 
	C211.131073,297.202057 218.597626,295.605042 226.094269,295.213074 
	C234.241547,294.787140 242.456558,295.897308 250.645309,295.970367 
	C264.736969,296.096161 278.014038,292.249390 290.978485,287.098083 
	C317.708038,276.477325 341.405792,261.305237 361.198059,240.287567 
	C368.871063,232.139526 372.429901,222.690125 368.743256,211.701508 
	C363.030853,194.674713 357.277679,177.642776 350.816071,160.892960 
	C346.734100,150.311615 341.331451,140.239716 336.119476,129.313278 
M327.000000,359.501038 
	C327.000000,369.891693 327.000000,380.282379 327.000000,390.974640 
	C344.571350,390.974640 361.194092,391.144989 377.804993,390.779541 
	C380.129791,390.728363 383.007263,388.500305 384.520264,386.458405 
	C386.059753,384.380707 386.678528,381.326355 386.910339,378.631683 
	C387.502411,371.748474 385.399506,365.038422 386.740601,357.873505 
	C388.899384,346.340057 381.789948,340.184631 370.343781,340.877563 
	C360.566742,341.469452 350.725433,341.000000 340.912567,341.000000 
	C336.475433,341.000000 332.038269,341.000000 327.000000,341.000000 
	C327.000000,347.286591 327.000000,352.894287 327.000000,359.501038 
M313.000000,356.505371 
	C313.000000,351.432678 313.000000,346.359985 313.000000,341.786652 
	C305.572113,338.986542 303.720581,344.407379 301.010895,348.088074 
	C293.521790,358.260956 286.184387,368.545532 278.414246,379.302002 
	C269.915253,367.556763 261.605225,356.496918 253.820419,345.078979 
	C251.177383,341.202423 248.512115,340.192108 244.395508,341.626923 
	C244.395508,358.075928 244.395508,374.304901 244.395508,390.612610 
	C247.358963,390.612610 249.921265,390.612610 253.062836,390.612610 
	C253.062836,380.724670 253.062836,371.202118 253.062836,361.679596 
	C253.439850,361.505676 253.816849,361.331757 254.193863,361.157837 
	C254.736435,361.965759 255.252808,362.792786 255.825577,363.578735 
	C261.940613,371.969849 267.988678,380.411438 274.222992,388.713104 
	C276.762024,392.094116 280.530090,391.898163 282.965057,388.532043 
	C286.055420,384.260010 289.029480,379.903320 292.148102,375.652435 
	C295.699097,370.812225 299.354187,366.048401 302.963989,361.251373 
	C303.358307,361.412781 303.752594,361.574158 304.146881,361.735565 
	C304.146881,371.304779 304.146881,380.874023 304.146881,390.665771 
	C307.259857,390.665771 309.820435,390.665771 313.000000,390.665771 
	C313.000000,379.400177 313.000000,368.451630 313.000000,356.505371 
M199.502731,358.968018 
	C194.880737,354.698578 190.071121,350.612030 185.684967,346.112671 
	C180.376541,340.667297 174.262192,339.953796 166.539581,341.802124 
	C175.754593,349.873749 184.279144,357.586517 193.111755,364.928741 
	C195.795120,367.159302 197.212250,369.277954 197.065781,372.822327 
	C196.821442,378.734283 196.999115,384.663696 196.999115,390.600159 
	C200.391708,390.600159 202.949081,390.600159 206.000809,390.600159 
	C206.000809,384.427216 205.702087,378.613739 206.138809,372.856018 
	C206.329895,370.336639 207.436813,367.361542 209.155197,365.589783 
	C213.041443,361.582794 217.626877,358.263275 221.815277,354.537476 
	C226.405945,350.453857 230.869919,346.227814 235.988495,341.511566 
	C227.824326,340.376251 221.414703,340.444458 216.458252,346.850800 
	C213.973602,350.062256 210.505173,352.575012 207.250412,355.106476 
	C205.057388,356.812134 202.460022,357.997925 199.502731,358.968018 
M117.322319,390.001740 
	C117.885101,390.303528 118.448174,390.869202 119.010628,390.868561 
	C133.319061,390.852783 147.627441,390.780914 161.935623,390.685699 
	C162.180313,390.684082 162.422287,390.274902 162.986908,389.766541 
	C162.897980,387.809204 162.796875,385.583923 162.668625,382.760742 
	C149.865372,382.760742 137.639938,382.760742 124.826691,382.760742 
	C124.826691,368.572235 124.826691,355.006317 124.826691,341.386169 
	C121.981285,341.386169 119.751587,341.386169 117.099869,341.386169 
	C117.099869,357.533234 117.099869,373.312439 117.322319,390.001740 
z"/>
<path fill="#9B041E" opacity="1.000000" stroke="none" 
	d="
M336.320312,129.626312 
	C341.331451,140.239716 346.734100,150.311615 350.816071,160.892960 
	C357.277679,177.642776 363.030853,194.674713 368.743256,211.701508 
	C372.429901,222.690125 368.871063,232.139526 361.198059,240.287567 
	C341.405792,261.305237 317.708038,276.477325 290.978485,287.098083 
	C278.014038,292.249390 264.736969,296.096161 250.645309,295.970367 
	C242.456558,295.897308 234.241547,294.787140 226.094269,295.213074 
	C218.597626,295.605042 211.131073,297.202057 203.729721,298.665100 
	C184.686722,302.429352 166.989594,300.065735 152.295929,286.499115 
	C144.123489,278.953491 138.971619,269.040344 137.227600,258.089630 
	C135.881683,249.638535 134.665741,240.518585 136.488617,232.390472 
	C138.369476,224.003906 143.097931,215.820480 148.170853,208.677628 
	C158.172836,194.594452 172.444458,187.993271 189.887512,187.915527 
	C200.640045,187.867599 210.909470,189.544266 221.120544,193.877853 
	C228.294693,188.052200 236.046539,182.562790 245.841202,182.090485 
	C254.976852,181.649933 264.150452,181.996338 273.526733,181.996338 
	C273.989838,175.328461 274.539459,168.091599 274.981537,160.848190 
	C275.374908,154.402267 275.561310,147.943130 275.997772,141.500580 
	C276.569244,133.065018 271.079315,122.962425 263.514099,119.346924 
	C262.206543,118.722023 260.258820,118.776787 258.815796,119.211464 
	C253.112534,120.929398 247.591476,120.282196 241.899017,119.026840 
	C239.413376,118.478683 236.138779,118.590179 234.020798,119.799866 
	C225.028641,124.935745 217.160706,124.534882 209.343704,117.832390 
	C196.355423,106.695892 193.666031,91.414337 201.878220,76.333740 
	C207.663452,65.709908 215.347534,57.003384 226.905807,52.775009 
	C230.501846,51.459461 235.070190,51.116947 238.765854,52.040295 
	C258.260559,56.910961 275.555664,66.595932 291.583344,78.392014 
	C305.994263,88.998222 319.439178,100.775703 328.857086,116.366020 
	C331.414368,120.599312 333.705963,124.993134 336.320312,129.626312 
M249.918091,64.462585 
	C248.234009,63.787766 246.508011,63.201038 244.872925,62.423206 
	C236.929688,58.644470 229.404510,58.595558 222.644165,64.926125 
	C219.758896,67.627960 216.678925,70.226845 214.288849,73.334984 
	C201.768494,89.616989 203.566071,104.658310 220.721909,114.406967 
	C223.340988,115.895233 225.004150,114.996521 227.374680,114.000084 
	C231.511032,112.261406 236.295547,109.625549 240.231567,110.379028 
	C247.470291,111.764748 254.292816,113.010971 261.342316,110.164207 
	C261.829285,109.967560 262.582092,110.488335 263.223877,110.607101 
	C277.238403,113.200546 285.376953,128.729218 284.933624,141.661194 
	C284.451050,155.736557 283.679413,169.802383 282.973450,183.869339 
	C282.875488,185.821884 283.001740,188.157730 281.993591,189.591370 
	C280.914276,191.126175 278.494263,192.851227 276.871490,192.663177 
	C271.511261,192.042007 266.295471,190.180450 260.935455,189.549850 
	C249.507935,188.205383 238.665298,190.189102 230.163727,198.493515 
	C222.207504,206.265228 219.191071,216.389084 219.072983,227.326813 
	C219.040466,230.337204 218.027695,232.511093 215.209290,232.632309 
	C212.148300,232.763931 209.862595,231.020554 210.027237,227.435883 
	C210.110489,225.623245 210.110550,223.766037 210.520798,222.016342 
	C212.130127,215.152542 213.887741,208.323502 215.735458,200.898178 
	C213.093796,199.996384 209.778412,198.567612 206.319611,197.733795 
	C188.651764,193.474594 172.467773,195.565063 159.196259,209.307816 
	C145.759430,223.221756 141.858932,239.600922 146.605423,258.206085 
	C149.301620,268.774628 154.467834,277.714722 163.478973,284.197906 
	C176.690033,293.702850 190.960220,293.429291 206.008926,289.664856 
	C212.966888,287.924316 220.598465,286.334381 227.494049,287.417511 
	C241.704041,289.649445 255.470078,288.616333 269.181824,285.353760 
	C292.016266,279.920563 312.414459,269.090576 331.024750,255.140625 
	C340.067932,248.362000 347.959808,240.023453 356.204956,232.213760 
	C360.625977,228.026184 362.051331,222.532410 360.686005,216.715897 
	C359.257965,210.632248 357.219727,204.686966 355.341614,198.714706 
	C348.245544,176.149551 339.144623,154.470261 327.486267,133.831070 
	C319.966370,120.518364 311.316620,108.019081 300.558960,97.283684 
	C286.270905,83.025177 268.869629,73.158455 249.918091,64.462585 
z"/>
<path fill="#9A031E" opacity="1.000000" stroke="none" 
	d="
M327.000000,359.001495 
	C327.000000,352.894287 327.000000,347.286591 327.000000,341.000000 
	C332.038269,341.000000 336.475433,341.000000 340.912567,341.000000 
	C350.725433,341.000000 360.566742,341.469452 370.343781,340.877563 
	C381.789948,340.184631 388.899384,346.340057 386.740601,357.873505 
	C385.399506,365.038422 387.502411,371.748474 386.910339,378.631683 
	C386.678528,381.326355 386.059753,384.380707 384.520264,386.458405 
	C383.007263,388.500305 380.129791,390.728363 377.804993,390.779541 
	C361.194092,391.144989 344.571350,390.974640 327.000000,390.974640 
	C327.000000,380.282379 327.000000,369.891693 327.000000,359.001495 
M336.009796,379.299500 
	C335.828705,381.644897 336.480499,383.249939 339.263550,382.984009 
	C339.592865,382.952545 339.928680,382.993347 340.261505,382.993347 
	C350.746857,382.993469 361.232208,382.984894 371.717560,382.995697 
	C376.209229,383.000336 378.112122,381.090424 378.140472,376.310638 
	C378.168823,371.533112 375.991608,370.871399 372.029510,370.940704 
	C361.713776,371.121094 351.392700,370.987274 341.073853,371.017517 
	C339.485565,371.022156 337.897888,371.231750 336.003113,371.368713 
	C336.003113,374.079956 336.003113,376.230408 336.009796,379.299500 
M344.579834,362.000000 
	C353.243134,361.999817 361.906403,362.009186 370.569702,361.996246 
	C377.018341,361.986633 377.961426,361.227203 377.994324,356.122070 
	C378.028503,350.817383 377.110718,350.020966 370.813843,350.004608 
	C364.149811,349.987305 357.485687,350.000183 350.821625,350.000000 
	C346.054199,349.999878 341.286804,350.000000 336.370178,350.000000 
	C336.370178,354.323944 336.370178,357.883301 336.370178,361.999939 
	C339.024963,361.999939 341.316986,361.999939 344.579834,362.000000 
z"/>
<path fill="#9A031E" opacity="1.000000" stroke="none" 
	d="
M313.000000,357.004242 
	C313.000000,368.451630 313.000000,379.400177 313.000000,390.665771 
	C309.820435,390.665771 307.259857,390.665771 304.146881,390.665771 
	C304.146881,380.874023 304.146881,371.304779 304.146881,361.735565 
	C303.752594,361.574158 303.358307,361.412781 302.963989,361.251373 
	C299.354187,366.048401 295.699097,370.812225 292.148102,375.652435 
	C289.029480,379.903320 286.055420,384.260010 282.965057,388.532043 
	C280.530090,391.898163 276.762024,392.094116 274.222992,388.713104 
	C267.988678,380.411438 261.940613,371.969849 255.825577,363.578735 
	C255.252808,362.792786 254.736435,361.965759 254.193863,361.157837 
	C253.816849,361.331757 253.439850,361.505676 253.062836,361.679596 
	C253.062836,371.202118 253.062836,380.724670 253.062836,390.612610 
	C249.921265,390.612610 247.358963,390.612610 244.395508,390.612610 
	C244.395508,374.304901 244.395508,358.075928 244.395508,341.626923 
	C248.512115,340.192108 251.177383,341.202423 253.820419,345.078979 
	C261.605225,356.496918 269.915253,367.556763 278.414246,379.302002 
	C286.184387,368.545532 293.521790,358.260956 301.010895,348.088074 
	C303.720581,344.407379 305.572113,338.986542 313.000000,341.786652 
	C313.000000,346.359985 313.000000,351.432678 313.000000,357.004242 
z"/>
<path fill="#9A031E" opacity="1.000000" stroke="none" 
	d="
M199.773132,359.192169 
	C202.460022,357.997925 205.057388,356.812134 207.250412,355.106476 
	C210.505173,352.575012 213.973602,350.062256 216.458252,346.850800 
	C221.414703,340.444458 227.824326,340.376251 235.988495,341.511566 
	C230.869919,346.227814 226.405945,350.453857 221.815277,354.537476 
	C217.626877,358.263275 213.041443,361.582794 209.155197,365.589783 
	C207.436813,367.361542 206.329895,370.336639 206.138809,372.856018 
	C205.702087,378.613739 206.000809,384.427216 206.000809,390.600159 
	C202.949081,390.600159 200.391708,390.600159 196.999115,390.600159 
	C196.999115,384.663696 196.821442,378.734283 197.065781,372.822327 
	C197.212250,369.277954 195.795120,367.159302 193.111755,364.928741 
	C184.279144,357.586517 175.754593,349.873749 166.539581,341.802124 
	C174.262192,339.953796 180.376541,340.667297 185.684967,346.112671 
	C190.071121,350.612030 194.880737,354.698578 199.773132,359.192169 
z"/>
<path fill="#9A031E" opacity="1.000000" stroke="none" 
	d="
M117.211090,389.546692 
	C117.099869,373.312439 117.099869,357.533234 117.099869,341.386169 
	C119.751587,341.386169 121.981285,341.386169 124.826691,341.386169 
	C124.826691,355.006317 124.826691,368.572235 124.826691,382.760742 
	C137.639938,382.760742 149.865372,382.760742 162.668625,382.760742 
	C162.796875,385.583923 162.897980,387.809204 162.986908,389.766541 
	C162.422287,390.274902 162.180313,390.684082 161.935623,390.685699 
	C147.627441,390.780914 133.319061,390.852783 119.010628,390.868561 
	C118.448174,390.869202 117.885101,390.303528 117.211090,389.546692 
z"/>
<path fill="#000000" opacity="1.000000" stroke="none" 
	d="
M250.244324,64.667412 
	C268.869629,73.158455 286.270905,83.025177 300.558960,97.283684 
	C311.316620,108.019081 319.966370,120.518364 327.486267,133.831070 
	C339.144623,154.470261 348.245544,176.149551 355.341614,198.714706 
	C357.219727,204.686966 359.257965,210.632248 360.686005,216.715897 
	C362.051331,222.532410 360.625977,228.026184 356.204956,232.213760 
	C347.959808,240.023453 340.067932,248.362000 331.024750,255.140625 
	C312.414459,269.090576 292.016266,279.920563 269.181824,285.353760 
	C255.470078,288.616333 241.704041,289.649445 227.494049,287.417511 
	C220.598465,286.334381 212.966888,287.924316 206.008926,289.664856 
	C190.960220,293.429291 176.690033,293.702850 163.478973,284.197906 
	C154.467834,277.714722 149.301620,268.774628 146.605423,258.206085 
	C141.858932,239.600922 145.759430,223.221756 159.196259,209.307816 
	C172.467773,195.565063 188.651764,193.474594 206.319611,197.733795 
	C209.778412,198.567612 213.093796,199.996384 215.735458,200.898178 
	C213.887741,208.323502 212.130127,215.152542 210.520798,222.016342 
	C210.110550,223.766037 210.110489,225.623245 210.027237,227.435883 
	C209.862595,231.020554 212.148300,232.763931 215.209290,232.632309 
	C218.027695,232.511093 219.040466,230.337204 219.072983,227.326813 
	C219.191071,216.389084 222.207504,206.265228 230.163727,198.493515 
	C238.665298,190.189102 249.507935,188.205383 260.935455,189.549850 
	C266.295471,190.180450 271.511261,192.042007 276.871490,192.663177 
	C278.494263,192.851227 280.914276,191.126175 281.993591,189.591370 
	C283.001740,188.157730 282.875488,185.821884 282.973450,183.869339 
	C283.679413,169.802383 284.451050,155.736557 284.933624,141.661194 
	C285.376953,128.729218 277.238403,113.200546 263.223877,110.607101 
	C262.582092,110.488335 261.829285,109.967560 261.342316,110.164207 
	C254.292816,113.010971 247.470291,111.764748 240.231567,110.379028 
	C236.295547,109.625549 231.511032,112.261406 227.374680,114.000084 
	C225.004150,114.996521 223.340988,115.895233 220.721909,114.406967 
	C203.566071,104.658310 201.768494,89.616989 214.288849,73.334984 
	C216.678925,70.226845 219.758896,67.627960 222.644165,64.926125 
	C229.404510,58.595558 236.929688,58.644470 244.872925,62.423206 
	C246.508011,63.201038 248.234009,63.787766 250.244324,64.667412 
M227.490616,269.877747 
	C229.143814,270.913239 230.675003,272.292297 232.469604,272.929626 
	C246.439346,277.890900 260.470734,278.557465 274.466553,272.991028 
	C285.407410,268.639618 293.845978,261.272583 300.237427,251.449142 
	C301.857513,248.959122 302.593781,246.175629 299.715973,244.625259 
	C297.339142,243.344757 294.170898,242.943726 292.637848,246.636703 
	C292.267944,247.527740 291.552338,248.282928 290.957581,249.071854 
	C281.362518,261.798798 268.917023,269.445190 252.675095,268.814575 
	C246.376190,268.570007 240.137589,266.349243 233.909058,264.870544 
	C230.016357,263.946350 227.447357,264.692322 227.490616,269.877747 
z"/>
<path fill="#000000" opacity="1.000000" stroke="none" 
	d="
M336.006470,378.840149 
	C336.003113,376.230408 336.003113,374.079956 336.003113,371.368713 
	C337.897888,371.231750 339.485565,371.022156 341.073853,371.017517 
	C351.392700,370.987274 361.713776,371.121094 372.029510,370.940704 
	C375.991608,370.871399 378.168823,371.533112 378.140472,376.310638 
	C378.112122,381.090424 376.209229,383.000336 371.717560,382.995697 
	C361.232208,382.984894 350.746857,382.993469 340.261505,382.993347 
	C339.928680,382.993347 339.592865,382.952545 339.263550,382.984009 
	C336.480499,383.249939 335.828705,381.644897 336.006470,378.840149 
z"/>
<path fill="#000000" opacity="1.000000" stroke="none" 
	d="
M344.094421,361.999969 
	C341.316986,361.999939 339.024963,361.999939 336.370178,361.999939 
	C336.370178,357.883301 336.370178,354.323944 336.370178,350.000000 
	C341.286804,350.000000 346.054199,349.999878 350.821625,350.000000 
	C357.485687,350.000183 364.149811,349.987305 370.813843,350.004608 
	C377.110718,350.020966 378.028503,350.817383 377.994324,356.122070 
	C377.961426,361.227203 377.018341,361.986633 370.569702,361.996246 
	C361.906403,362.009186 353.243134,361.999817 344.094421,361.999969 
z"/>
<path fill="#9B041E" opacity="1.000000" stroke="none" 
	d="
M227.326126,269.538818 
	C227.447357,264.692322 230.016357,263.946350 233.909058,264.870544 
	C240.137589,266.349243 246.376190,268.570007 252.675095,268.814575 
	C268.917023,269.445190 281.362518,261.798798 290.957581,249.071854 
	C291.552338,248.282928 292.267944,247.527740 292.637848,246.636703 
	C294.170898,242.943726 297.339142,243.344757 299.715973,244.625259 
	C302.593781,246.175629 301.857513,248.959122 300.237427,251.449142 
	C293.845978,261.272583 285.407410,268.639618 274.466553,272.991028 
	C260.470734,278.557465 246.439346,277.890900 232.469604,272.929626 
	C230.675003,272.292297 229.143814,270.913239 227.326126,269.538818 
z"/>
</svg>